<svg width="258" height="197" viewBox="0 0 258 197" fill="none" xmlns="http://www.w3.org/2000/svg">
<g clip-path="url(#clip0_9_941)">
<path d="M23.8094 196.692L23.7973 196.77C23.7831 196.694 23.7693 196.617 23.7562 196.54C23.7324 196.416 23.7117 196.292 23.6921 196.167C22.9174 191.291 23.3437 186.3 24.9342 181.626C25.2399 180.714 25.5881 179.818 25.9787 178.939C27.4728 175.536 29.5908 172.442 32.2234 169.817C33.0781 168.943 34.0534 168.195 35.1196 167.596C35.2762 167.513 35.4336 167.434 35.5945 167.362C36.5806 166.883 37.6908 166.723 38.7721 166.901C39.1649 166.975 39.5457 167.103 39.9034 167.281C40.0289 167.342 40.1497 167.409 40.2682 167.481C40.991 167.954 41.6082 168.572 42.081 169.296C42.5539 170.019 42.8723 170.832 43.0163 171.684C43.2217 172.955 43.1747 174.254 42.8781 175.507C42.8526 175.627 42.8252 175.746 42.7959 175.864C42.5856 176.699 42.3213 177.52 42.0048 178.321C38.8365 186.471 32.0276 193.702 23.8094 196.692Z" fill="#F2F2F2"/>
<path d="M39.8824 167.307C37.4101 170.859 35.0748 174.501 32.8762 178.232C30.6804 181.961 28.6281 185.769 26.7194 189.658C25.6517 191.833 24.6307 194.03 23.6563 196.25C23.5484 196.495 23.9123 196.709 24.0216 196.46C25.7617 192.498 27.6501 188.606 29.6868 184.784C31.7221 180.965 33.9005 177.227 36.2218 173.57C37.5206 171.524 38.8625 169.507 40.2477 167.518C40.4026 167.295 40.0367 167.086 39.8824 167.307Z" fill="white"/>
<path d="M42.5277 175.528C40.6699 177.942 37.9353 179.526 34.9168 179.938C34.0747 180.053 33.2222 180.07 32.3762 179.988C32.1055 179.963 32.1036 180.384 32.372 180.41C35.5203 180.675 38.646 179.687 41.0705 177.662C41.7505 177.094 42.3622 176.448 42.893 175.739C43.0555 175.522 42.6891 175.313 42.5277 175.528Z" fill="white"/>
<path d="M26.6605 188.622C26.2286 188.007 25.8697 187.343 25.5911 186.645C24.9547 185.054 24.7288 183.328 24.9342 181.626C25.2399 180.714 25.5881 179.818 25.9787 178.939C26.0024 178.974 26.0166 179.014 26.0201 179.056C26.0235 179.098 26.0159 179.139 25.9982 179.177C25.7231 179.837 25.5254 180.526 25.4089 181.231C24.9907 183.744 25.5712 186.321 27.0266 188.413C27.045 188.436 27.0572 188.463 27.0621 188.492C27.067 188.521 27.0644 188.55 27.0546 188.578C27.0383 188.614 27.0127 188.646 26.9803 188.67C26.948 188.694 26.91 188.708 26.8701 188.713C26.8303 188.717 26.7899 188.711 26.7532 188.695C26.7164 188.679 26.6844 188.654 26.6605 188.622Z" fill="white"/>
<path d="M35.1826 167.329C34.6742 169.354 34.8256 171.489 35.6149 173.423C35.6428 173.471 35.6887 173.506 35.7425 173.521C35.7964 173.536 35.8538 173.529 35.9025 173.501C35.95 173.473 35.9847 173.427 35.9993 173.373C36.0139 173.32 36.0073 173.263 35.981 173.214C35.2419 171.379 35.1048 169.357 35.5893 167.44C35.6019 167.386 35.5934 167.33 35.5654 167.283C35.5375 167.236 35.4924 167.202 35.4396 167.188C35.3869 167.173 35.3306 167.18 35.2826 167.206C35.2347 167.233 35.1988 167.276 35.1826 167.329Z" fill="white"/>
<path d="M23.7576 186.514L23.7832 186.588C23.7352 186.528 23.6869 186.465 23.6397 186.403C23.561 186.305 23.485 186.204 23.4097 186.103C20.4581 182.145 18.5165 177.527 17.7532 172.649C17.6 171.699 17.4922 170.745 17.4298 169.785C17.1714 166.077 17.6094 162.354 18.7212 158.807C19.0718 157.635 19.5879 156.52 20.2538 155.494C20.3539 155.348 20.4567 155.205 20.5655 155.067C21.2166 154.185 22.125 153.527 23.1657 153.183C23.5478 153.066 23.9443 153.003 24.3439 152.994C24.4834 152.99 24.6215 152.993 24.7596 153.001C25.6199 153.085 26.4535 153.346 27.2084 153.767C27.9632 154.188 28.623 154.76 29.1464 155.448C29.9188 156.478 30.4808 157.65 30.8002 158.897C30.8333 159.015 30.8644 159.133 30.8937 159.252C31.0954 160.089 31.2426 160.938 31.3344 161.795C32.3155 170.483 29.6456 180.049 23.7576 186.514Z" fill="#F2F2F2"/>
<path d="M24.3374 153.027C23.7983 157.32 23.4223 161.63 23.2093 165.956C22.9973 170.277 22.9495 174.603 23.0658 178.932C23.131 181.355 23.2478 183.775 23.4162 186.193C23.4348 186.46 23.8563 186.48 23.8375 186.209C23.5376 181.893 23.4014 177.569 23.4289 173.238C23.457 168.911 23.6493 164.59 24.0058 160.273C24.2054 157.859 24.4563 155.449 24.7587 153.044C24.7924 152.775 24.371 152.759 24.3374 153.027Z" fill="white"/>
<path d="M30.4999 159.079C29.9763 162.079 28.2908 164.752 25.809 166.518C25.1166 167.011 24.3695 167.422 23.5825 167.743C23.3309 167.846 23.5252 168.22 23.7746 168.118C26.6856 166.89 28.9948 164.564 30.2008 161.645C30.539 160.826 30.7808 159.97 30.9212 159.095C30.9647 158.829 30.5431 158.814 30.4999 159.079Z" fill="white"/>
<path d="M22.5324 178.043C21.8641 177.698 21.2381 177.278 20.667 176.789C19.3639 175.675 18.3619 174.252 17.7532 172.649C17.6 171.699 17.4922 170.745 17.4297 169.785C17.4668 169.804 17.498 169.833 17.5204 169.869C17.5429 169.904 17.5557 169.945 17.5576 169.987C17.6204 170.698 17.7654 171.4 17.9897 172.078C18.7872 174.498 20.4988 176.511 22.7594 177.687C22.7863 177.699 22.8098 177.717 22.8276 177.741C22.8453 177.764 22.8568 177.792 22.8609 177.821C22.8635 177.861 22.8556 177.901 22.838 177.937C22.8203 177.973 22.7935 178.003 22.7603 178.026C22.7271 178.048 22.6885 178.062 22.6486 178.065C22.6086 178.067 22.5685 178.06 22.5324 178.043Z" fill="white"/>
<path d="M20.1855 155.229C20.6764 157.259 21.8025 159.079 23.3999 160.425C23.4471 160.454 23.5042 160.464 23.5587 160.452C23.6132 160.44 23.6608 160.407 23.6911 160.361C23.7199 160.313 23.7293 160.256 23.7173 160.202C23.7054 160.148 23.673 160.1 23.627 160.07C22.12 158.788 21.0591 157.061 20.5972 155.138C20.5837 155.085 20.5501 155.039 20.5035 155.011C20.4569 154.982 20.401 154.973 20.3476 154.984C20.2942 154.996 20.2474 155.028 20.2172 155.074C20.1869 155.119 20.1756 155.175 20.1855 155.229Z" fill="white"/>
<path d="M23.94 196.744L24.0019 196.793C23.9288 196.768 23.8543 196.741 23.7813 196.715C23.6618 196.674 23.5438 196.63 23.4257 196.586C18.8064 194.84 14.6827 191.994 11.412 188.295C10.7712 187.577 10.166 186.831 9.59636 186.056C7.3812 183.071 5.74443 179.698 4.77057 176.11C4.43491 174.935 4.26883 173.717 4.27735 172.494C4.28298 172.317 4.29279 172.142 4.30967 171.966C4.38331 170.873 4.79427 169.829 5.48591 168.979C5.74485 168.675 6.04467 168.408 6.37684 168.185C6.49204 168.107 6.61012 168.035 6.73097 167.968C7.50103 167.575 8.34383 167.346 9.20661 167.294C10.0694 167.243 10.9336 167.369 11.745 167.667C12.9508 168.119 14.0558 168.804 14.9968 169.683C15.0881 169.765 15.1781 169.847 15.2667 169.932C15.8876 170.528 16.4692 171.165 17.0078 171.837C22.5151 178.629 25.4184 188.127 23.94 196.744Z" fill="#F2F2F2"/>
<path d="M6.38901 168.217C8.24767 172.124 10.2524 175.958 12.4033 179.717C14.5528 183.473 16.8427 187.144 19.2731 190.729C20.6329 192.735 22.035 194.711 23.4795 196.658C23.6393 196.873 24.0054 196.663 23.8435 196.445C21.2654 192.969 18.8214 189.399 16.5115 185.736C14.2043 182.075 12.0383 178.33 10.0133 174.501C8.88058 172.359 7.79381 170.193 6.75304 168.004C6.63659 167.759 6.27299 167.973 6.38901 168.217Z" fill="white"/>
<path d="M14.8416 169.998C16.0166 172.808 16.0365 175.967 14.8968 178.792C14.5789 179.58 14.1707 180.328 13.6804 181.022C13.524 181.245 13.8893 181.456 14.0444 181.235C15.8359 178.633 16.5286 175.43 15.972 172.321C15.8158 171.449 15.5586 170.598 15.2056 169.785C15.0984 169.537 14.7351 169.751 14.8416 169.998Z" fill="white"/>
<path d="M18.3442 190.266C17.5957 190.336 16.8416 190.319 16.0971 190.214C14.3991 189.977 12.788 189.317 11.4119 188.295C10.7711 187.577 10.1659 186.831 9.59631 186.056C9.63807 186.052 9.67999 186.06 9.71794 186.078C9.75589 186.095 9.78856 186.123 9.81273 186.157C10.249 186.723 10.7493 187.236 11.3037 187.687C13.2793 189.296 15.8057 190.071 18.3442 189.845C18.3732 189.84 18.4028 189.843 18.4304 189.853C18.4579 189.863 18.4824 189.88 18.5015 189.902C18.5253 189.935 18.5401 189.973 18.5446 190.013C18.5492 190.052 18.5432 190.093 18.5272 190.129C18.5113 190.166 18.4861 190.198 18.4539 190.222C18.4218 190.246 18.384 190.261 18.3442 190.266Z" fill="white"/>
<path d="M4.07669 172.307C5.58386 173.753 7.51332 174.681 9.58426 174.955C9.69807 174.97 9.79397 174.847 9.79505 174.744C9.79373 174.688 9.7711 174.636 9.73185 174.596C9.6926 174.557 9.63975 174.534 9.58426 174.533C7.62418 174.265 5.80001 173.381 4.3748 172.009C4.17939 171.821 3.8809 172.119 4.07669 172.307Z" fill="white"/>
<path d="M52.7154 141.157C53.1271 140.874 53.4719 140.505 53.7255 140.076C53.9792 139.646 54.1354 139.166 54.1834 138.669C54.2313 138.172 54.1697 137.671 54.0029 137.201C53.8362 136.73 53.5683 136.302 53.2181 135.947L54.5426 106.391L47.7997 107.148L48.1914 136.057C47.6328 136.685 47.3239 137.496 47.3232 138.336C47.3226 139.176 47.6302 139.987 48.1879 140.616C48.7455 141.244 49.5144 141.647 50.3488 141.746C51.1833 141.846 52.0253 141.636 52.7154 141.157Z" fill="#FFB8B8"/>
<path d="M65.0162 191.188L68.854 191.862L72.6469 177.385L67.6186 176.389L65.0162 191.188Z" fill="#FFB8B8"/>
<path d="M75.6285 196.726L63.5673 194.606L64.3865 189.947L71.7877 191.248C72.3997 191.355 72.9845 191.582 73.5087 191.916C74.0329 192.249 74.4862 192.683 74.8429 193.191C75.1995 193.7 75.4525 194.274 75.5873 194.88C75.7221 195.487 75.7361 196.114 75.6285 196.726Z" fill="#2F2E41"/>
<path d="M54.4827 193.108L58.3793 193.108L60.2328 178.083L54.4821 178.083L54.4827 193.108Z" fill="#FFB8B8"/>
<path d="M65.894 196.725L53.6478 196.726L53.6476 191.995L61.1623 191.995C62.4172 191.995 63.6207 192.493 64.508 193.38C65.3954 194.267 65.8939 195.47 65.894 196.725Z" fill="#2F2E41"/>
<path d="M71.0582 188.994C70.9974 188.994 70.9366 188.99 70.8762 188.983L66.29 188.606C66.0812 188.581 65.8795 188.514 65.6973 188.409C65.5151 188.305 65.3561 188.164 65.23 187.996C65.1039 187.827 65.0133 187.635 64.9637 187.431C64.9141 187.227 64.9066 187.015 64.9416 186.807L69.1766 163.078L66.315 147.994C66.2916 147.871 66.2248 147.761 66.1267 147.684C66.0286 147.607 65.9059 147.568 65.7813 147.574C65.6567 147.58 65.5385 147.631 65.4485 147.718C65.3586 147.804 65.303 147.92 65.2919 148.044L61.7145 188.279C61.6752 188.683 61.4806 189.056 61.1717 189.319C60.8627 189.582 60.4637 189.715 60.0587 189.689L55.7379 189.528C55.3593 189.502 55.0035 189.337 54.7379 189.066C54.4723 188.795 54.3151 188.436 54.2961 188.057L54.0057 139.834L76.4066 137.035L77.9714 161.196L77.9652 161.222L72.5651 187.809C72.4828 188.146 72.2896 188.447 72.0164 188.661C71.7432 188.876 71.4058 188.993 71.0582 188.994Z" fill="#2F2E41"/>
<path d="M61.3912 87.2385C65.7024 87.2385 69.1974 83.7445 69.1974 79.4344C69.1974 75.1244 65.7024 71.6304 61.3912 71.6304C57.08 71.6304 53.585 75.1244 53.585 79.4344C53.585 83.7445 57.08 87.2385 61.3912 87.2385Z" fill="#FFB8B8"/>
<path d="M68.7466 143.358C67.5257 143.366 66.3283 143.023 65.2959 142.372C61.5146 140.009 57.2197 140.948 54.9961 141.718C54.7755 141.795 54.5402 141.822 54.3079 141.795C54.0756 141.769 53.8523 141.69 53.6547 141.565C53.4594 141.443 53.2943 141.277 53.1719 141.082C53.0494 140.887 52.9728 140.666 52.9477 140.437L48.9042 104.333C48.2266 98.2841 51.8714 92.5968 57.5706 90.8102C57.7847 90.743 58.0025 90.6794 58.2238 90.6192C59.9974 90.1384 61.8547 90.0521 63.6652 90.3662C65.4758 90.6804 67.1954 91.3874 68.7032 92.4375C70.2391 93.4991 71.5235 94.8844 72.4662 96.4957C73.4088 98.1071 73.9868 99.9054 74.1593 101.764L77.5634 138.11C77.5866 138.345 77.5548 138.583 77.4706 138.803C77.3864 139.024 77.252 139.223 77.078 139.383C75.8848 140.487 72.4213 143.358 68.7466 143.358Z" fill="#FFD429"/>
<path d="M56.4335 112.075L47.3108 111.073C47.0512 111.044 46.8009 110.96 46.5768 110.826C46.3527 110.692 46.1601 110.511 46.0121 110.296C45.8641 110.081 45.7643 109.837 45.7194 109.579C45.6744 109.322 45.6855 109.058 45.7517 108.806L48.0738 99.9579C48.2274 98.631 48.9009 97.4192 49.9469 96.5881C50.9928 95.757 52.3256 95.3745 53.6532 95.5244C54.9808 95.6742 56.1948 96.3443 57.029 97.3876C57.8632 98.4309 58.2495 99.7624 58.1033 101.09L58.448 110.201C58.4578 110.462 58.4112 110.722 58.3115 110.963C58.2117 111.205 58.0611 111.422 57.87 111.599C57.6788 111.777 57.4515 111.912 57.2037 111.994C56.9558 112.076 56.6931 112.104 56.4335 112.075Z" fill="#FFD429"/>
<path d="M77.5269 139.891C77.9016 139.561 78.1994 139.153 78.3994 138.696C78.5994 138.239 78.6967 137.743 78.6844 137.245C78.6721 136.746 78.5505 136.256 78.3283 135.809C78.106 135.362 77.7885 134.969 77.398 134.658L75.15 105.159L68.5428 106.646L72.4213 135.374C71.9424 136.064 71.7335 136.906 71.8341 137.74C71.9347 138.575 72.3379 139.343 72.9672 139.9C73.5966 140.456 74.4083 140.763 75.2487 140.761C76.0891 140.76 76.8997 140.45 77.5269 139.891Z" fill="#FFB8B8"/>
<path d="M66.0097 110.221C65.8185 110.043 65.6679 109.826 65.5681 109.585C65.4684 109.344 65.4219 109.084 65.4318 108.823L65.7765 99.7115C65.6303 98.3838 66.0166 97.0524 66.8508 96.0091C67.685 94.9657 68.899 94.2957 70.2266 94.1458C71.5542 93.9959 72.887 94.3785 73.933 95.2096C74.9789 96.0407 75.6524 97.2525 75.806 98.5793L78.1281 107.427C78.1943 107.68 78.2054 107.944 78.1604 108.201C78.1155 108.458 78.0157 108.702 77.8677 108.918C77.7197 109.133 77.5271 109.313 77.303 109.447C77.0789 109.581 76.8286 109.665 76.569 109.694L67.4463 110.697C67.1867 110.725 66.9239 110.698 66.676 110.616C66.4281 110.533 66.2008 110.399 66.0097 110.221Z" fill="#FFD429"/>
<path d="M60.9269 87.5325C60.7882 87.5324 60.6499 87.5162 60.5148 87.4844L60.4752 87.4748C53.6118 86.4251 52.0951 82.4508 51.7621 80.7911C51.4175 79.0727 51.8099 77.414 52.6966 76.7698C52.2132 75.2438 52.2908 73.8907 52.9278 72.7465C54.0387 70.751 56.4496 70.0763 56.773 69.9937C58.6984 68.5737 61.0021 69.5216 61.4213 69.7139C65.1458 68.3363 66.5693 69.483 66.8268 69.739C68.4916 70.038 69.5064 70.6809 69.8433 71.6504C70.4761 73.4714 68.475 75.7365 68.3894 75.8321L68.3451 75.8816L65.3638 76.0235C65.0809 76.037 64.804 76.1098 64.5511 76.2372C64.2981 76.3646 64.0748 76.5437 63.8955 76.7629C63.7163 76.9821 63.5852 77.2365 63.5106 77.5097C63.4361 77.7828 63.4198 78.0686 63.4628 78.3484C63.5435 78.7095 63.6454 79.0655 63.7681 79.4146C64.2772 81.0053 64.6587 82.3643 64.1667 82.8809C64.0552 82.9809 63.9178 83.0475 63.7703 83.073C63.6227 83.0986 63.4709 83.0821 63.3323 83.0255C62.8662 82.9011 62.5497 82.9271 62.392 83.1032C62.1472 83.3763 62.2219 84.0675 62.6024 85.0496C62.7218 85.3601 62.754 85.6974 62.6954 86.0248C62.6368 86.3523 62.4897 86.6575 62.27 86.9074C62.1046 87.1025 61.8989 87.2593 61.667 87.3673C61.4352 87.4752 61.1827 87.5316 60.9269 87.5325Z" fill="#2F2E41"/>
<path d="M153.117 112.481H114.66C113.227 112.479 111.854 111.909 110.841 110.897C109.828 109.884 109.258 108.511 109.257 107.079V49.3035C109.258 47.8714 109.828 46.4984 110.841 45.4858C111.854 44.4731 113.227 43.9035 114.66 43.9019H153.117C154.549 43.9035 155.923 44.4731 156.936 45.4858C157.948 46.4984 158.518 47.8714 158.52 49.3035V107.079C158.518 108.511 157.948 109.884 156.936 110.897C155.923 111.909 154.549 112.479 153.117 112.481ZM114.66 44.5374C113.396 44.5388 112.184 45.0414 111.29 45.9349C110.396 46.8285 109.894 48.0399 109.892 49.3035V107.079C109.894 108.343 110.396 109.554 111.29 110.448C112.184 111.341 113.396 111.844 114.66 111.845H153.117C154.381 111.844 155.593 111.341 156.486 110.448C157.38 109.554 157.883 108.343 157.884 107.079V49.3035C157.883 48.0399 157.38 46.8285 156.486 45.9349C155.593 45.0414 154.381 44.5388 153.117 44.5374H114.66Z" fill="#3F3D56"/>
<path d="M147.237 71.6777H120.539C119.823 71.6769 119.136 71.392 118.63 70.8857C118.124 70.3794 117.839 69.6929 117.838 68.9768V56.2672C117.839 55.5511 118.124 54.8646 118.63 54.3583C119.136 53.852 119.823 53.5672 120.539 53.5664H147.237C147.953 53.5672 148.64 53.852 149.146 54.3583C149.653 54.8646 149.938 55.5511 149.938 56.2672V68.9768C149.938 69.6929 149.653 70.3794 149.146 70.8857C148.64 71.392 147.953 71.6768 147.237 71.6777Z" fill="#FFE270"/>
<path d="M145.33 83.5929H122.446C121.772 83.5929 121.125 83.3251 120.648 82.8484C120.172 82.3717 119.904 81.7252 119.904 81.051C119.904 80.3768 120.172 79.7303 120.648 79.2536C121.125 78.7769 121.772 78.5091 122.446 78.5091H145.33C146.004 78.5091 146.651 78.7769 147.128 79.2536C147.605 79.7303 147.873 80.3768 147.873 81.051C147.873 81.7252 147.605 82.3717 147.128 82.8484C146.651 83.3251 146.004 83.5929 145.33 83.5929Z" fill="#CCCCCC"/>
<path d="M145.33 93.1252H122.446C121.772 93.1252 121.125 92.8574 120.648 92.3807C120.172 91.904 119.904 91.2574 119.904 90.5833C119.904 89.9091 120.172 89.2625 120.648 88.7858C121.125 88.3091 121.772 88.0413 122.446 88.0413H145.33C146.004 88.0413 146.651 88.3091 147.128 88.7858C147.605 89.2625 147.873 89.9091 147.873 90.5833C147.873 91.2574 147.605 91.904 147.128 92.3807C146.651 92.8574 146.004 93.1252 145.33 93.1252Z" fill="#CCCCCC"/>
<path d="M145.33 102.657H122.446C121.772 102.657 121.125 102.39 120.648 101.913C120.172 101.436 119.904 100.79 119.904 100.116C119.904 99.4414 120.172 98.7948 120.648 98.3181C121.125 97.8414 121.772 97.5736 122.446 97.5736H145.33C146.004 97.5736 146.651 97.8414 147.128 98.3181C147.605 98.7948 147.873 99.4414 147.873 100.116C147.873 100.79 147.605 101.436 147.128 101.913C146.651 102.39 146.004 102.657 145.33 102.657Z" fill="#CCCCCC"/>
<path d="M246.876 144.89H208.419C206.986 144.889 205.613 144.319 204.6 143.306C203.587 142.294 203.017 140.921 203.016 139.489V81.7132C203.017 80.2811 203.587 78.9081 204.6 77.8955C205.613 76.8828 206.986 76.3132 208.419 76.3116H246.876C248.309 76.3132 249.682 76.8828 250.695 77.8955C251.708 78.9081 252.277 80.2811 252.279 81.7132V139.489C252.277 140.921 251.708 142.294 250.695 143.306C249.682 144.319 248.309 144.889 246.876 144.89ZM208.419 76.9471C207.155 76.9485 205.943 77.4511 205.049 78.3446C204.156 79.2381 203.653 80.4496 203.651 81.7132V139.489C203.653 140.752 204.156 141.964 205.049 142.857C205.943 143.751 207.155 144.253 208.419 144.255H246.876C248.14 144.253 249.352 143.751 250.246 142.857C251.139 141.964 251.642 140.752 251.643 139.489V81.7132C251.642 80.4496 251.139 79.2381 250.246 78.3446C249.352 77.4511 248.14 76.9485 246.876 76.9471H208.419Z" fill="#3F3D56"/>
<path d="M239.089 90.5833H216.206C215.531 90.5833 214.885 90.3154 214.408 89.8387C213.931 89.362 213.663 88.7155 213.663 88.0413C213.663 87.3672 213.931 86.7206 214.408 86.2439C214.885 85.7672 215.531 85.4994 216.206 85.4994H239.089C239.764 85.4994 240.41 85.7672 240.887 86.2439C241.364 86.7206 241.632 87.3672 241.632 88.0413C241.632 88.7155 241.364 89.362 240.887 89.8387C240.41 90.3154 239.764 90.5833 239.089 90.5833Z" fill="#CCCCCC"/>
<path d="M239.089 100.116H216.206C215.531 100.116 214.885 99.8477 214.408 99.371C213.931 98.8943 213.663 98.2477 213.663 97.5736C213.663 96.8994 213.931 96.2529 214.408 95.7762C214.885 95.2995 215.531 95.0316 216.206 95.0316H239.089C239.764 95.0316 240.41 95.2995 240.887 95.7762C241.364 96.2529 241.632 96.8994 241.632 97.5736C241.632 98.2477 241.364 98.8943 240.887 99.371C240.41 99.8477 239.764 100.116 239.089 100.116Z" fill="#CCCCCC"/>
<path d="M240.996 124.423H214.299C213.582 124.422 212.896 124.137 212.389 123.631C211.883 123.124 211.598 122.438 211.597 121.722V109.012C211.598 108.296 211.883 107.61 212.389 107.103C212.896 106.597 213.582 106.312 214.299 106.311H240.996C241.712 106.312 242.399 106.597 242.906 107.103C243.412 107.61 243.697 108.296 243.698 109.012V121.722C243.697 122.438 243.412 123.124 242.906 123.631C242.399 124.137 241.712 124.422 240.996 124.423Z" fill="#FFE270"/>
<path d="M239.089 135.703H216.206C215.531 135.703 214.885 135.435 214.408 134.958C213.931 134.481 213.663 133.835 213.663 133.161C213.663 132.487 213.931 131.84 214.408 131.363C214.885 130.887 215.531 130.619 216.206 130.619H239.089C239.764 130.619 240.41 130.887 240.887 131.363C241.364 131.84 241.632 132.487 241.632 133.161C241.632 133.835 241.364 134.481 240.887 134.958C240.41 135.435 239.764 135.703 239.089 135.703Z" fill="#CCCCCC"/>
<path d="M223.357 53.0629H184.9C183.467 53.0613 182.094 52.4917 181.081 51.479C180.068 50.4664 179.498 49.0934 179.496 47.6613V11.81C179.498 10.3779 180.068 9.0049 181.081 7.99225C182.094 6.9796 183.467 6.40998 184.9 6.40837H223.357C224.789 6.40998 226.163 6.9796 227.175 7.99225C228.188 9.0049 228.758 10.3779 228.76 11.81V47.6613C228.758 49.0934 228.188 50.4664 227.175 51.479C226.163 52.4917 224.789 53.0613 223.357 53.0629ZM184.9 7.04385C183.636 7.04528 182.424 7.54789 181.53 8.4414C180.636 9.33492 180.134 10.5464 180.132 11.81V47.6613C180.134 48.9249 180.636 50.1364 181.53 51.0299C182.424 51.9234 183.636 52.426 184.9 52.4274H223.357C224.621 52.426 225.832 51.9234 226.726 51.0299C227.62 50.1364 228.123 48.9249 228.124 47.6613V11.81C228.123 10.5464 227.62 9.33492 226.726 8.4414C225.832 7.54789 224.621 7.04528 223.357 7.04385H184.9Z" fill="#3F3D56"/>
<path d="M215.57 41.8099H192.686C192.012 41.8099 191.365 41.542 190.889 41.0653C190.412 40.5886 190.144 39.9421 190.144 39.2679C190.144 38.5938 190.412 37.9472 190.889 37.4705C191.365 36.9938 192.012 36.726 192.686 36.726H215.57C216.244 36.726 216.891 36.9938 217.368 37.4705C217.845 37.9472 218.113 38.5938 218.113 39.2679C218.113 39.9421 217.845 40.5886 217.368 41.0653C216.891 41.542 216.244 41.8099 215.57 41.8099Z" fill="#CCCCCC"/>
<path d="M215.57 32.2776H192.686C192.012 32.2776 191.365 32.0098 190.889 31.5331C190.412 31.0564 190.144 30.4098 190.144 29.7357C190.144 29.0615 190.412 28.4149 190.889 27.9382C191.365 27.4615 192.012 27.1937 192.686 27.1937H215.57C216.244 27.1937 216.891 27.4615 217.368 27.9382C217.845 28.4149 218.113 29.0615 218.113 29.7357C218.113 30.4098 217.845 31.0564 217.368 31.5331C216.891 32.0098 216.244 32.2776 215.57 32.2776Z" fill="#CCCCCC"/>
<path d="M215.57 22.7453H192.686C192.012 22.7453 191.365 22.4775 190.889 22.0008C190.412 21.5241 190.144 20.8776 190.144 20.2034C190.144 19.5292 190.412 18.8827 190.889 18.406C191.365 17.9293 192.012 17.6615 192.686 17.6615H215.57C216.244 17.6615 216.891 17.9293 217.368 18.406C217.845 18.8827 218.113 19.5292 218.113 20.2034C218.113 20.8776 217.845 21.5241 217.368 22.0008C216.891 22.4775 216.244 22.7453 215.57 22.7453Z" fill="#CCCCCC"/>
<path d="M155.342 52.7452C159.379 52.7452 162.652 49.4732 162.652 45.4371C162.652 41.401 159.379 38.129 155.342 38.129C151.304 38.129 148.031 41.401 148.031 45.4371C148.031 49.4732 151.304 52.7452 155.342 52.7452Z" fill="#06A4FF" fill-opacity="0.933333"/>
<path d="M154.617 48.225C154.453 48.2253 154.292 48.1721 154.161 48.0735L154.153 48.0674L152.435 46.7524C152.355 46.6916 152.288 46.6156 152.237 46.5288C152.187 46.442 152.154 46.3461 152.14 46.2466C152.127 46.147 152.133 46.0458 152.159 45.9488C152.185 45.8517 152.23 45.7607 152.291 45.681C152.352 45.6013 152.428 45.5344 152.515 45.4842C152.602 45.434 152.698 45.4015 152.798 45.3885C152.898 45.3755 152.999 45.3823 153.096 45.4085C153.193 45.4346 153.284 45.4797 153.363 45.5411L154.476 46.3941L157.105 42.9657C157.166 42.8861 157.242 42.8194 157.329 42.7693C157.416 42.7191 157.512 42.6866 157.611 42.6735C157.711 42.6604 157.812 42.6669 157.908 42.6929C158.005 42.7188 158.096 42.7635 158.175 42.8244L158.159 42.8466L158.176 42.8248C158.336 42.948 158.441 43.1299 158.468 43.3305C158.494 43.531 158.44 43.7339 158.317 43.8946L155.224 47.9272C155.153 48.0201 155.061 48.0953 154.955 48.1469C154.85 48.1986 154.734 48.2253 154.617 48.225Z" fill="white"/>
<path d="M250.69 85.4726C254.727 85.4726 258 82.2006 258 78.1645C258 74.1284 254.727 70.8564 250.69 70.8564C246.653 70.8564 243.38 74.1284 243.38 78.1645C243.38 82.2006 246.653 85.4726 250.69 85.4726Z" fill="#06A4FF" fill-opacity="0.933333"/>
<path d="M249.965 80.9524C249.801 80.9527 249.641 80.8995 249.509 80.8009L249.501 80.7948L247.783 79.4798C247.703 79.419 247.636 79.3431 247.585 79.2563C247.535 79.1695 247.502 79.0735 247.489 78.974C247.475 78.8745 247.482 78.7733 247.508 78.6762C247.533 78.5792 247.578 78.4882 247.639 78.4085C247.7 78.3287 247.777 78.2619 247.864 78.2117C247.951 78.1615 248.047 78.1289 248.146 78.1159C248.246 78.1029 248.347 78.1097 248.444 78.1359C248.541 78.1621 248.632 78.2071 248.712 78.2685L249.824 79.1215L252.454 75.6931C252.515 75.6136 252.591 75.5468 252.678 75.4967C252.764 75.4466 252.86 75.414 252.96 75.4009C253.059 75.3878 253.16 75.3944 253.257 75.4203C253.354 75.4462 253.444 75.4909 253.524 75.5519L253.508 75.5741L253.524 75.5522C253.685 75.6755 253.79 75.8573 253.816 76.0579C253.843 76.2584 253.788 76.4613 253.666 76.622L250.573 80.6546C250.501 80.7475 250.409 80.8227 250.304 80.8744C250.198 80.926 250.083 80.9527 249.965 80.9524Z" fill="white"/>
<path d="M227.489 14.6161C231.526 14.6161 234.799 11.3442 234.799 7.30806C234.799 3.27193 231.526 0 227.489 0C223.451 0 220.178 3.27193 220.178 7.30806C220.178 11.3442 223.451 14.6161 227.489 14.6161Z" fill="#06A4FF" fill-opacity="0.933333"/>
<path d="M226.764 10.0959C226.599 10.0962 226.439 10.0431 226.308 9.94445L226.3 9.93832L224.582 8.62339C224.502 8.56259 224.435 8.48661 224.384 8.39981C224.334 8.313 224.301 8.21708 224.287 8.11754C224.274 8.01801 224.28 7.91681 224.306 7.81976C224.332 7.72271 224.377 7.63172 224.438 7.552C224.499 7.47228 224.575 7.40541 224.662 7.35521C224.749 7.30501 224.845 7.27247 224.945 7.25947C225.045 7.24646 225.146 7.25325 225.243 7.27943C225.34 7.30561 225.431 7.35067 225.51 7.41204L226.623 8.26504L229.252 4.83663C229.313 4.75711 229.389 4.69038 229.476 4.64025C229.563 4.59012 229.659 4.55756 229.758 4.54445C229.858 4.53134 229.958 4.53792 230.055 4.56382C230.152 4.58972 230.243 4.63444 230.322 4.69541L230.306 4.7176L230.323 4.69573C230.483 4.81901 230.588 5.00088 230.615 5.20143C230.641 5.40199 230.587 5.60485 230.464 5.76553L227.371 9.79814C227.3 9.89107 227.208 9.96627 227.102 10.0179C226.997 10.0696 226.881 10.0963 226.764 10.0959Z" fill="white"/>
<path d="M121.41 197H0.317828C0.233535 197 0.152694 196.967 0.0930894 196.907C0.0334851 196.847 0 196.767 0 196.682C0 196.598 0.0334851 196.517 0.0930894 196.458C0.152694 196.398 0.233535 196.365 0.317828 196.365H121.41C121.495 196.365 121.575 196.398 121.635 196.458C121.695 196.517 121.728 196.598 121.728 196.682C121.728 196.767 121.695 196.847 121.635 196.907C121.575 196.967 121.495 197 121.41 197Z" fill="#3F3D56"/>
</g>
<defs>
<clipPath id="clip0_9_941">
<rect width="258" height="197" fill="white"/>
</clipPath>
</defs>
</svg>
