<svg width="265" height="167" viewBox="0 0 265 167" fill="none" xmlns="http://www.w3.org/2000/svg">
<g clip-path="url(#clip0_9_859)">
<path d="M107.089 77.1697H5.14269C3.77924 77.1682 2.47206 76.6278 1.50795 75.6671C0.543839 74.7064 0.00152851 73.4038 0 72.0451V15.0722C0.00152851 13.7136 0.543839 12.411 1.50795 11.4503C2.47206 10.4896 3.77924 9.94919 5.14269 9.94766H107.089C108.452 9.94919 109.76 10.4896 110.724 11.4503C111.688 12.411 112.23 13.7136 112.232 15.0722V72.0451C112.23 73.4038 111.688 74.7063 110.724 75.6671C109.76 76.6278 108.452 77.1682 107.089 77.1697ZM5.14269 10.5506C3.93965 10.5519 2.78626 11.0287 1.93558 11.8764C1.08489 12.7241 0.606384 13.8734 0.605023 15.0722V72.0451C0.606384 73.2439 1.08489 74.3933 1.93558 75.2409C2.78626 76.0886 3.93965 76.5654 5.14269 76.5668H107.089C108.292 76.5654 109.445 76.0886 110.296 75.2409C111.147 74.3933 111.625 73.2439 111.627 72.0451V15.0722C111.625 13.8734 111.147 12.7241 110.296 11.8764C109.445 11.0287 108.292 10.5519 107.089 10.5506H5.14269Z" fill="#E6E6E6"/>
<path d="M81.2547 32.6503H61.5915C61.2304 32.6503 60.8842 32.7932 60.6289 33.0476C60.3736 33.302 60.2302 33.647 60.2302 34.0068C60.2302 34.3666 60.3736 34.7116 60.6289 34.966C60.8842 35.2204 61.2304 35.3633 61.5915 35.3633H81.2547C81.6157 35.3633 81.962 35.2204 82.2173 34.966C82.4726 34.7116 82.616 34.3666 82.616 34.0068C82.616 33.647 82.4726 33.302 82.2173 33.0476C81.962 32.7932 81.6157 32.6503 81.2547 32.6503Z" fill="#E6E6E6"/>
<path d="M100.422 41.2415H61.3313C60.7232 41.2415 60.2302 41.8504 60.2302 42.598C60.2302 43.3455 60.7232 43.9545 61.3313 43.9545H100.422C101.03 43.9545 101.523 43.3455 101.523 42.598C101.523 41.8504 101.03 41.2415 100.422 41.2415Z" fill="#E6E6E6"/>
<path d="M100.422 50.0397H61.3313C60.7232 50.0397 60.2302 50.6486 60.2302 51.3962C60.2302 52.1438 60.7232 52.7527 61.3313 52.7527H100.422C101.03 52.7527 101.523 52.1438 101.523 51.3962C101.523 50.6486 101.03 50.0397 100.422 50.0397Z" fill="#E6E6E6"/>
<path d="M46.5868 64.6598H12.7055C11.8634 64.6588 11.056 64.325 10.4605 63.7316C9.86504 63.1383 9.53007 62.3338 9.52911 61.4946V23.8141C9.53007 22.9749 9.86504 22.1704 10.4605 21.577C11.056 20.9837 11.8634 20.6499 12.7055 20.6489H46.5868C47.4289 20.6499 48.2363 20.9837 48.8317 21.577C49.4272 22.1704 49.7622 22.9749 49.7631 23.8141V61.4946C49.7622 62.3338 49.4272 63.1383 48.8317 63.7316C48.2363 64.325 47.4289 64.6588 46.5868 64.6598Z" fill="#B2E3FF"/>
<path d="M109.509 21.704C115.524 21.704 120.4 16.8454 120.4 10.852C120.4 4.8586 115.524 0 109.509 0C103.495 0 98.6187 4.8586 98.6187 10.852C98.6187 16.8454 103.495 21.704 109.509 21.704Z" fill="#B2E3FF"/>
<path d="M251.69 77.1697H149.743C148.38 77.1682 147.073 76.6278 146.108 75.6671C145.144 74.7064 144.602 73.4038 144.6 72.0451V15.0722C144.602 13.7136 145.144 12.411 146.108 11.4503C147.073 10.4896 148.38 9.94919 149.743 9.94766H251.69C253.053 9.94919 254.36 10.4896 255.324 11.4503C256.288 12.411 256.831 13.7136 256.832 15.0722V72.0451C256.831 73.4038 256.288 74.7063 255.324 75.6671C254.36 76.6278 253.053 77.1682 251.69 77.1697ZM149.743 10.5506C148.54 10.5519 147.387 11.0287 146.536 11.8764C145.685 12.7241 145.207 13.8734 145.205 15.0722V72.0451C145.207 73.2439 145.685 74.3933 146.536 75.2409C147.387 76.0886 148.54 76.5654 149.743 76.5668H251.69C252.893 76.5654 254.046 76.0886 254.897 75.2409C255.747 74.3933 256.226 73.2439 256.227 72.0451V15.0722C256.226 13.8734 255.747 12.7241 254.897 11.8764C254.046 11.0287 252.893 10.5519 251.69 10.5506H149.743Z" fill="#3F3D56"/>
<path d="M225.855 32.6503H206.192C205.831 32.6503 205.485 32.7932 205.229 33.0476C204.974 33.302 204.831 33.647 204.831 34.0068C204.831 34.3666 204.974 34.7116 205.229 34.966C205.485 35.2204 205.831 35.3633 206.192 35.3633H225.855C226.216 35.3633 226.562 35.2204 226.818 34.966C227.073 34.7116 227.216 34.3666 227.216 34.0068C227.216 33.647 227.073 33.302 226.818 33.0476C226.562 32.7932 226.216 32.6503 225.855 32.6503Z" fill="#3F3D56"/>
<path d="M245.022 41.2415H205.932C205.324 41.2415 204.831 41.8504 204.831 42.598C204.831 43.3455 205.324 43.9545 205.932 43.9545H245.022C245.63 43.9545 246.123 43.3455 246.123 42.598C246.123 41.8504 245.63 41.2415 245.022 41.2415Z" fill="#3F3D56"/>
<path d="M245.022 50.0397H205.932C205.324 50.0397 204.831 50.6486 204.831 51.3962C204.831 52.1438 205.324 52.7527 205.932 52.7527H245.022C245.63 52.7527 246.123 52.1438 246.123 51.3962C246.123 50.6486 245.63 50.0397 245.022 50.0397Z" fill="#3F3D56"/>
<path d="M191.187 64.6598H157.306C156.464 64.6588 155.656 64.325 155.061 63.7316C154.465 63.1383 154.131 62.3338 154.13 61.4946V23.8141C154.131 22.9749 154.465 22.1704 155.061 21.577C155.656 20.9837 156.464 20.6499 157.306 20.6489H191.187C192.029 20.6499 192.837 20.9837 193.432 21.577C194.028 22.1704 194.363 22.9749 194.364 23.8141V61.4946C194.363 62.3338 194.028 63.1383 193.432 63.7316C192.837 64.325 192.029 64.6588 191.187 64.6598Z" fill="#FFE270"/>
<path d="M254.11 21.704C260.124 21.704 265 16.8454 265 10.852C265 4.8586 260.124 0 254.11 0C248.095 0 243.219 4.8586 243.219 10.852C243.219 16.8454 248.095 21.704 254.11 21.704Z" fill="#06A4FF" fill-opacity="0.933333"/>
<path d="M253.497 15.245C253.2 15.2456 252.911 15.1499 252.674 14.9724L252.659 14.9614L249.557 12.5949C249.413 12.4853 249.292 12.3486 249.201 12.1924C249.11 12.0362 249.051 11.8637 249.027 11.6848C249.003 11.5058 249.015 11.3239 249.062 11.1494C249.108 10.9749 249.189 10.8114 249.299 10.668C249.41 10.5247 249.547 10.4045 249.704 10.3141C249.861 10.2238 250.034 10.1652 250.214 10.1417C250.393 10.1182 250.576 10.1302 250.751 10.1771C250.926 10.2239 251.09 10.3047 251.233 10.4148L253.243 11.95L257.99 5.77991C258.101 5.63681 258.238 5.51672 258.395 5.42649C258.551 5.33627 258.724 5.27769 258.904 5.25409C259.083 5.23049 259.265 5.24233 259.44 5.28895C259.615 5.33557 259.779 5.41604 259.923 5.52577L259.893 5.56571L259.923 5.52635C260.213 5.74821 260.403 6.07551 260.45 6.43645C260.498 6.79739 260.4 7.16248 260.178 7.45165L254.594 14.7091C254.465 14.8763 254.299 15.0117 254.108 15.1046C253.918 15.1975 253.709 15.2456 253.497 15.245Z" fill="white"/>
<path d="M107.089 167H5.14269C3.77924 166.998 2.47206 166.458 1.50795 165.497C0.543839 164.537 0.00152851 163.234 0 161.875V104.903C0.00152851 103.544 0.543839 102.241 1.50795 101.281C2.47206 100.32 3.77924 99.7795 5.14269 99.778H107.089C108.452 99.7795 109.76 100.32 110.724 101.281C111.688 102.241 112.23 103.544 112.232 104.903V161.875C112.23 163.234 111.688 164.537 110.724 165.497C109.76 166.458 108.452 166.998 107.089 167ZM5.14269 100.381C3.93965 100.382 2.78626 100.859 1.93558 101.707C1.08489 102.554 0.606384 103.704 0.605023 104.903V161.875C0.606384 163.074 1.08489 164.224 1.93558 165.071C2.78626 165.919 3.93965 166.396 5.14269 166.397H107.089C108.292 166.396 109.445 165.919 110.296 165.071C111.147 164.224 111.625 163.074 111.627 161.875V104.903C111.625 103.704 111.147 102.554 110.296 101.707C109.445 100.859 108.292 100.382 107.089 100.381H5.14269Z" fill="#3F3D56"/>
<path d="M81.2547 122.481H61.5915C61.2304 122.481 60.8842 122.624 60.6289 122.878C60.3736 123.132 60.2302 123.477 60.2302 123.837C60.2302 124.197 60.3736 124.542 60.6289 124.796C60.8842 125.051 61.2304 125.194 61.5915 125.194H81.2547C81.6157 125.194 81.962 125.051 82.2173 124.796C82.4726 124.542 82.616 124.197 82.616 123.837C82.616 123.477 82.4726 123.132 82.2173 122.878C81.962 122.624 81.6157 122.481 81.2547 122.481Z" fill="#3F3D56"/>
<path d="M100.422 131.072H61.3313C60.7232 131.072 60.2302 131.681 60.2302 132.428C60.2302 133.176 60.7232 133.785 61.3313 133.785H100.422C101.03 133.785 101.523 133.176 101.523 132.428C101.523 131.681 101.03 131.072 100.422 131.072Z" fill="#3F3D56"/>
<path d="M100.422 139.87H61.3313C60.7232 139.87 60.2302 140.479 60.2302 141.227C60.2302 141.974 60.7232 142.583 61.3313 142.583H100.422C101.03 142.583 101.523 141.974 101.523 141.227C101.523 140.479 101.03 139.87 100.422 139.87Z" fill="#3F3D56"/>
<path d="M46.5868 154.49H12.7055C11.8634 154.489 11.056 154.155 10.4605 153.562C9.86504 152.969 9.53007 152.164 9.52911 151.325V113.644C9.53007 112.805 9.86504 112.001 10.4605 111.407C11.056 110.814 11.8634 110.48 12.7055 110.479H46.5868C47.4289 110.48 48.2363 110.814 48.8317 111.407C49.4272 112.001 49.7622 112.805 49.7631 113.644V151.325C49.7622 152.164 49.4272 152.969 48.8317 153.562C48.2363 154.155 47.4289 154.489 46.5868 154.49Z" fill="#FFE270"/>
<path d="M109.509 111.534C115.524 111.534 120.4 106.676 120.4 100.682C120.4 94.6889 115.524 89.8303 109.509 89.8303C103.495 89.8303 98.6187 94.6889 98.6187 100.682C98.6187 106.676 103.495 111.534 109.509 111.534Z" fill="#06A4FF" fill-opacity="0.933333"/>
<path d="M108.897 105.075C108.6 105.076 108.311 104.98 108.073 104.803L108.059 104.792L104.957 102.425C104.813 102.316 104.692 102.179 104.601 102.023C104.51 101.867 104.451 101.694 104.427 101.515C104.403 101.336 104.415 101.154 104.461 100.98C104.508 100.805 104.589 100.642 104.699 100.498C104.809 100.355 104.947 100.235 105.103 100.144C105.26 100.054 105.434 99.9956 105.613 99.972C105.793 99.9485 105.975 99.9605 106.15 100.007C106.325 100.054 106.489 100.135 106.633 100.245L108.642 101.78L113.39 95.6102C113.5 95.4671 113.637 95.347 113.794 95.2568C113.951 95.1666 114.124 95.108 114.303 95.0844C114.483 95.0608 114.665 95.0727 114.84 95.1193C115.015 95.1659 115.178 95.2464 115.322 95.3561L115.293 95.396L115.323 95.3567C115.613 95.5785 115.802 95.9058 115.85 96.2668C115.898 96.6277 115.8 96.9928 115.578 97.282L109.993 104.539C109.864 104.707 109.698 104.842 109.508 104.935C109.318 105.028 109.109 105.076 108.897 105.075Z" fill="white"/>
<path d="M251.69 167H149.743C148.38 166.998 147.073 166.458 146.108 165.497C145.144 164.537 144.602 163.234 144.6 161.875V104.903C144.602 103.544 145.144 102.241 146.108 101.281C147.073 100.32 148.38 99.7795 149.743 99.778H251.69C253.053 99.7795 254.36 100.32 255.324 101.281C256.288 102.241 256.831 103.544 256.832 104.903V161.875C256.831 163.234 256.288 164.537 255.324 165.497C254.36 166.458 253.053 166.998 251.69 167ZM149.743 100.381C148.54 100.382 147.387 100.859 146.536 101.707C145.685 102.554 145.207 103.704 145.205 104.903V161.875C145.207 163.074 145.685 164.224 146.536 165.071C147.387 165.919 148.54 166.396 149.743 166.397H251.69C252.893 166.396 254.046 165.919 254.897 165.071C255.747 164.224 256.226 163.074 256.227 161.875V104.903C256.226 103.704 255.747 102.554 254.897 101.707C254.046 100.859 252.893 100.382 251.69 100.381H149.743Z" fill="#3F3D56"/>
<path d="M225.855 122.481H206.192C205.831 122.481 205.485 122.624 205.229 122.878C204.974 123.132 204.831 123.477 204.831 123.837C204.831 124.197 204.974 124.542 205.229 124.796C205.485 125.051 205.831 125.194 206.192 125.194H225.855C226.216 125.194 226.562 125.051 226.818 124.796C227.073 124.542 227.216 124.197 227.216 123.837C227.216 123.477 227.073 123.132 226.818 122.878C226.562 122.624 226.216 122.481 225.855 122.481Z" fill="#3F3D56"/>
<path d="M245.022 131.072H205.932C205.324 131.072 204.831 131.681 204.831 132.428C204.831 133.176 205.324 133.785 205.932 133.785H245.022C245.63 133.785 246.123 133.176 246.123 132.428C246.123 131.681 245.63 131.072 245.022 131.072Z" fill="#3F3D56"/>
<path d="M245.022 139.87H205.932C205.324 139.87 204.831 140.479 204.831 141.227C204.831 141.974 205.324 142.583 205.932 142.583H245.022C245.63 142.583 246.123 141.974 246.123 141.227C246.123 140.479 245.63 139.87 245.022 139.87Z" fill="#3F3D56"/>
<path d="M191.187 154.49H157.306C156.464 154.489 155.656 154.155 155.061 153.562C154.465 152.969 154.131 152.164 154.13 151.325V113.644C154.131 112.805 154.465 112.001 155.061 111.407C155.656 110.814 156.464 110.48 157.306 110.479H191.187C192.029 110.48 192.837 110.814 193.432 111.407C194.028 112.001 194.363 112.805 194.364 113.644V151.325C194.363 152.164 194.028 152.969 193.432 153.562C192.837 154.155 192.029 154.489 191.187 154.49Z" fill="#FFE270"/>
<path d="M254.11 111.534C260.124 111.534 265 106.676 265 100.682C265 94.6889 260.124 89.8303 254.11 89.8303C248.095 89.8303 243.219 94.6889 243.219 100.682C243.219 106.676 248.095 111.534 254.11 111.534Z" fill="#06A4FF" fill-opacity="0.933333"/>
<path d="M253.497 105.075C253.2 105.076 252.911 104.98 252.674 104.803L252.659 104.792L249.557 102.425C249.413 102.316 249.292 102.179 249.201 102.023C249.11 101.867 249.051 101.694 249.027 101.515C249.003 101.336 249.015 101.154 249.062 100.98C249.108 100.805 249.189 100.642 249.299 100.498C249.41 100.355 249.547 100.235 249.704 100.144C249.861 100.054 250.034 99.9956 250.214 99.972C250.393 99.9485 250.576 99.9605 250.751 100.007C250.926 100.054 251.09 100.135 251.233 100.245L253.243 101.78L257.99 95.6102C258.101 95.4671 258.238 95.347 258.395 95.2568C258.551 95.1666 258.724 95.108 258.904 95.0844C259.083 95.0608 259.265 95.0727 259.44 95.1193C259.615 95.1659 259.779 95.2464 259.923 95.3561L259.893 95.396L259.923 95.3567C260.213 95.5785 260.403 95.9058 260.45 96.2668C260.498 96.6277 260.4 96.9928 260.178 97.282L254.594 104.539C254.465 104.707 254.299 104.842 254.108 104.935C253.918 105.028 253.709 105.076 253.497 105.075Z" fill="white"/>
<path d="M175.367 57.1728C174.604 57.1516 173.654 57.125 172.923 56.5927C172.705 56.4277 172.526 56.2172 172.399 55.976C172.271 55.7347 172.198 55.4686 172.185 55.1963C172.171 55.0028 172.203 54.8088 172.278 54.6296C172.352 54.4504 172.467 54.2908 172.614 54.1632C172.832 54.0011 173.087 53.8959 173.356 53.8573C173.625 53.8187 173.9 53.8478 174.155 53.9421L173.532 49.4061L173.989 49.3437L174.722 54.6763L174.34 54.5017C173.897 54.2994 173.289 54.1966 172.912 54.5144C172.819 54.5975 172.747 54.7008 172.701 54.8162C172.655 54.9317 172.636 55.0562 172.646 55.18C172.657 55.3827 172.712 55.5807 172.807 55.7603C172.901 55.94 173.034 56.0972 173.195 56.2213C173.764 56.6356 174.521 56.6891 175.38 56.7131L175.367 57.1728Z" fill="white"/>
<path d="M171.271 49.7973H168.785V50.2572H171.271V49.7973Z" fill="white"/>
<path d="M179.117 49.7973H176.631V50.2572H179.117V49.7973Z" fill="white"/>
<path d="M164.466 43.4466C162.465 43.2191 160.914 41.308 160.744 39.3688C160.542 37.0619 161.89 34.8709 163.739 33.5764C165.674 32.2226 168.084 31.6573 170.416 31.5328C174.964 31.3073 179.435 32.7755 182.957 35.6521C184.704 37.0981 186.336 38.9401 186.955 41.165C187.492 43.0973 187.055 45.2862 185.495 46.6395C185.109 46.9712 184.659 47.2195 184.172 47.3689C183.685 47.5183 183.172 47.5655 182.666 47.5075C181.456 47.3823 180.339 46.7483 179.373 46.0481C177.493 44.686 175.949 42.7884 173.659 42.0766C171.98 41.5547 169.8 42.0141 168.774 43.5275C168.541 43.874 168.39 44.2686 168.332 44.6816C168.311 44.7697 168.324 44.8625 168.369 44.9413C168.414 45.02 168.487 45.0789 168.574 45.1059C168.663 45.1296 168.757 45.1177 168.837 45.0726C168.917 45.0275 168.975 44.9529 169 44.865C169.269 42.9588 171.622 42.2475 173.272 42.6828C175.679 43.3175 177.294 45.4575 179.269 46.817C180.291 47.5764 181.495 48.0553 182.761 48.2059C183.858 48.2917 184.948 47.9583 185.808 47.2732C187.494 45.946 188.139 43.6631 187.766 41.6078C187.335 39.2277 185.727 37.1879 183.963 35.6086C180.387 32.4407 175.745 30.7318 170.961 30.8223C168.521 30.8781 165.975 31.3801 163.873 32.6652C161.834 33.9117 160.258 35.9971 160.052 38.4213C159.87 40.555 161.019 42.7867 162.991 43.7215C163.456 43.941 163.955 44.0812 164.466 44.1364C164.908 44.1866 164.905 43.4964 164.466 43.4466Z" fill="white"/>
<path d="M175.367 145.797C174.604 145.776 173.654 145.749 172.923 145.217C172.705 145.052 172.526 144.842 172.399 144.601C172.271 144.359 172.198 144.093 172.185 143.821C172.171 143.627 172.203 143.433 172.278 143.254C172.352 143.075 172.467 142.915 172.614 142.788C172.832 142.626 173.087 142.52 173.356 142.482C173.625 142.443 173.9 142.472 174.155 142.567L173.532 138.031L173.989 137.968L174.722 143.301L174.34 143.126C173.897 142.924 173.289 142.821 172.912 143.139C172.819 143.222 172.747 143.325 172.701 143.441C172.655 143.556 172.636 143.681 172.646 143.805C172.657 144.007 172.712 144.205 172.807 144.385C172.901 144.565 173.034 144.722 173.195 144.846C173.764 145.26 174.521 145.314 175.38 145.338L175.367 145.797Z" fill="white"/>
<path d="M171.271 138.422H168.785V138.882H171.271V138.422Z" fill="white"/>
<path d="M179.117 138.422H176.631V138.882H179.117V138.422Z" fill="white"/>
<path d="M164.466 132.071C162.465 131.844 160.914 129.933 160.744 127.993C160.542 125.686 161.89 123.495 163.739 122.201C165.674 120.847 168.084 120.282 170.416 120.157C174.964 119.932 179.435 121.4 182.957 124.277C184.704 125.723 186.336 127.565 186.955 129.79C187.492 131.722 187.055 133.911 185.495 135.264C185.109 135.596 184.659 135.844 184.172 135.993C183.685 136.143 183.172 136.19 182.666 136.132C181.456 136.007 180.339 135.373 179.373 134.673C177.493 133.311 175.949 131.413 173.659 130.701C171.98 130.179 169.8 130.639 168.774 132.152C168.541 132.498 168.39 132.893 168.332 133.306C168.311 133.394 168.324 133.487 168.369 133.566C168.414 133.645 168.487 133.703 168.574 133.73C168.663 133.754 168.757 133.742 168.837 133.697C168.917 133.652 168.975 133.577 169 133.489C169.269 131.583 171.622 130.872 173.272 131.307C175.679 131.942 177.294 134.082 179.269 135.442C180.291 136.201 181.495 136.68 182.761 136.83C183.858 136.916 184.948 136.583 185.808 135.898C187.494 134.571 188.139 132.288 187.766 130.232C187.335 127.852 185.727 125.812 183.963 124.233C180.387 121.065 175.745 119.356 170.961 119.447C168.521 119.503 165.975 120.005 163.873 121.29C161.834 122.536 160.258 124.622 160.052 127.046C159.87 129.18 161.019 131.411 162.991 132.346C163.456 132.566 163.955 132.706 164.466 132.761C164.908 132.811 164.905 132.121 164.466 132.071Z" fill="white"/>
<path d="M29.2538 145.797C28.4908 145.776 27.5412 145.749 26.81 145.217C26.5922 145.052 26.4133 144.842 26.2857 144.601C26.1581 144.359 26.085 144.093 26.0715 143.821C26.0583 143.627 26.0902 143.433 26.1647 143.254C26.2392 143.075 26.3542 142.915 26.5009 142.788C26.7188 142.626 26.974 142.52 27.2432 142.482C27.5124 142.443 27.787 142.472 28.042 142.567L27.4191 138.031L27.8763 137.968L28.6086 143.301L28.2268 143.126C27.7841 142.924 27.1764 142.821 26.7988 143.139C26.7061 143.222 26.6338 143.325 26.5877 143.441C26.5416 143.556 26.5228 143.681 26.5328 143.805C26.544 144.007 26.5988 144.205 26.6937 144.385C26.7885 144.565 26.921 144.722 27.0823 144.846C27.6512 145.26 28.4082 145.314 29.2667 145.338L29.2538 145.797Z" fill="white"/>
<path d="M25.1578 138.422H22.6721V138.882H25.1578V138.422Z" fill="white"/>
<path d="M33.0038 138.422H30.5181V138.882H33.0038V138.422Z" fill="white"/>
<path d="M18.3534 132.071C16.3517 131.844 14.8014 129.933 14.6312 127.993C14.4286 125.686 15.7768 123.495 17.6265 122.201C19.5608 120.847 21.9708 120.282 24.3026 120.157C28.8513 119.932 33.3216 121.4 36.8442 124.277C38.5915 125.723 40.2233 127.565 40.8417 129.79C41.3788 131.722 40.9418 133.911 39.3822 135.264C38.9964 135.596 38.5458 135.844 38.0589 135.993C37.5719 136.143 37.0592 136.19 36.553 136.132C35.3429 136.007 34.2264 135.373 33.2599 134.673C31.3799 133.311 29.8365 131.413 27.546 130.701C25.8666 130.179 23.6872 130.639 22.6609 132.152C22.428 132.498 22.2771 132.893 22.2195 133.306C22.1983 133.394 22.2115 133.487 22.2563 133.566C22.3012 133.645 22.3745 133.703 22.4613 133.73C22.5498 133.754 22.6441 133.742 22.7238 133.697C22.8035 133.652 22.8622 133.577 22.8871 133.489C23.1565 131.583 25.5086 130.872 27.1591 131.307C29.5657 131.942 31.1812 134.082 33.1556 135.442C34.1777 136.201 35.3818 136.68 36.6477 136.83C37.7453 136.916 38.8346 136.583 39.6946 135.898C41.3814 134.571 42.0264 132.288 41.6534 130.232C41.2215 127.852 39.6139 125.812 37.85 124.233C34.274 121.065 29.6316 119.356 24.8477 119.447C22.4077 119.503 19.8618 120.005 17.7597 121.29C15.7207 122.536 14.1448 124.622 13.9388 127.046C13.7575 129.18 14.9063 131.411 16.8784 132.346C17.3433 132.566 17.8419 132.706 18.3535 132.761C18.7954 132.811 18.7917 132.121 18.3534 132.071Z" fill="white"/>
<path d="M29.2538 57.7757C28.4908 57.7544 27.5412 57.7278 26.81 57.1956C26.5922 57.0306 26.4133 56.8201 26.2857 56.5788C26.1581 56.3376 26.085 56.0715 26.0715 55.7992C26.0583 55.6057 26.0902 55.4117 26.1647 55.2325C26.2392 55.0533 26.3542 54.8936 26.5009 54.7661C26.7188 54.604 26.974 54.4988 27.2432 54.4602C27.5124 54.4216 27.787 54.4507 28.042 54.545L27.4191 50.009L27.8763 49.9465L28.6086 55.2792L28.2268 55.1046C27.7841 54.9023 27.1764 54.7994 26.7988 55.1173C26.7061 55.2004 26.6338 55.3037 26.5877 55.4191C26.5416 55.5346 26.5228 55.659 26.5328 55.7829C26.544 55.9856 26.5988 56.1835 26.6937 56.3632C26.7885 56.5429 26.921 56.7001 27.0823 56.8242C27.6512 57.2385 28.4082 57.2919 29.2667 57.316L29.2538 57.7757Z" fill="#3F3D56"/>
<path d="M25.1578 50.4001H22.6721V50.86H25.1578V50.4001Z" fill="#3F3D56"/>
<path d="M33.0038 50.4001H30.5181V50.86H33.0038V50.4001Z" fill="#3F3D56"/>
<path d="M18.3534 44.0494C16.3517 43.822 14.8014 41.9108 14.6312 39.9717C14.4286 37.6648 15.7768 35.4738 17.6265 34.1793C19.5608 32.8255 21.9708 32.2601 24.3026 32.1357C28.8513 31.9101 33.3216 33.3784 36.8442 36.255C38.5915 37.701 40.2233 39.543 40.8417 41.7679C41.3788 43.7002 40.9418 45.8891 39.3822 47.2424C38.9964 47.574 38.5458 47.8224 38.0589 47.9718C37.5719 48.1212 37.0592 48.1684 36.553 48.1104C35.3429 47.9852 34.2264 47.3512 33.2599 46.6509C31.3799 45.2888 29.8365 43.3913 27.546 42.6795C25.8666 42.1576 23.6872 42.617 22.6609 44.1304C22.428 44.4768 22.2771 44.8714 22.2195 45.2844C22.1983 45.3725 22.2115 45.4654 22.2563 45.5441C22.3012 45.6229 22.3745 45.6818 22.4613 45.7087C22.5498 45.7325 22.6441 45.7205 22.7238 45.6754C22.8035 45.6303 22.8622 45.5557 22.8871 45.4678C23.1565 43.5617 25.5086 42.8504 27.1591 43.2857C29.5657 43.9204 31.1812 46.0603 33.1556 47.4199C34.1777 48.1793 35.3818 48.6582 36.6477 48.8088C37.7453 48.8946 38.8346 48.5612 39.6946 47.8761C41.3814 46.5488 42.0264 44.266 41.6534 42.2107C41.2215 39.8306 39.6139 37.7907 37.85 36.2114C34.274 33.0436 29.6316 31.3346 24.8477 31.4251C22.4077 31.481 19.8618 31.9829 17.7597 33.268C15.7207 34.5146 14.1448 36.6 13.9388 39.0242C13.7575 41.1579 14.9063 43.3896 16.8784 44.3244C17.3433 44.5439 17.8419 44.6841 18.3535 44.7393C18.7954 44.7895 18.7917 44.0992 18.3534 44.0494Z" fill="#3F3D56"/>
</g>
<defs>
<clipPath id="clip0_9_859">
<rect width="265" height="167" fill="white"/>
</clipPath>
</defs>
</svg>
